<svg width="44" height="29" viewBox="0 0 44 29" fill="none" xmlns="http://www.w3.org/2000/svg">
<path d="M43 14.5C43 15.6171 42.4971 17.0231 41.4468 18.5522C40.4067 20.0665 38.8795 21.627 36.9639 23.0357C33.1306 25.8549 27.8342 28 22 28C16.1658 28 10.8694 25.8549 7.03611 23.0357C5.12053 21.627 3.59328 20.0665 2.55316 18.5522C1.50289 17.0231 1 15.6171 1 14.5C1 13.3829 1.50289 11.9769 2.55316 10.4478C3.59328 8.93348 5.12053 7.37302 7.03611 5.96425C10.8694 3.14512 16.1658 1 22 1C27.8342 1 33.1306 3.14512 36.9639 5.96425C38.8795 7.37302 40.4067 8.93348 41.4468 10.4478C42.4971 11.9769 43 13.3829 43 14.5Z" stroke="#3D3B75" stroke-width="2"/>
<path d="M30 14.5C30 18.5891 26.4729 22 22 22C17.5271 22 14 18.5891 14 14.5C14 10.4109 17.5271 7 22 7C26.4729 7 30 10.4109 30 14.5Z" stroke="#3D3B75" stroke-width="2"/>
</svg>
