<svg fill="none" height="29" viewBox="0 0 44 29" width="44" xmlns="http://www.w3.org/2000/svg"><g stroke="#3d3b75" stroke-width="2"><path d="m43 14.5c0 1.1171-.5029 2.5231-1.5532 4.0522-1.0401 1.5143-2.5673 3.0748-4.4829 4.4835-3.8333 2.8192-9.1297 4.9643-14.9639 4.9643s-11.1306-2.1451-14.96389-4.9643c-1.91558-1.4087-3.44283-2.9692-4.48295-4.4835-1.05027-1.5291-1.55316-2.9351-1.55316-4.0522s.50289-2.5231 1.55316-4.0522c1.04012-1.51432 2.56737-3.07478 4.48295-4.48355 3.83329-2.81913 9.12969-4.96425 14.96389-4.96425s11.1306 2.14512 14.9639 4.96425c1.9156 1.40877 3.4428 2.96923 4.4829 4.48355 1.0503 1.5291 1.5532 2.9351 1.5532 4.0522z"/><path d="m30 14.5c0 4.0891-3.5271 7.5-8 7.5s-8-3.4109-8-7.5 3.5271-7.5 8-7.5 8 3.4109 8 7.5z"/></g></svg>